<svg id="visual" viewBox="0 0 1524 600" width="1524" height="600" xmlns="http://www.w3.org/2000/svg" xmlns:xlink="http://www.w3.org/1999/xlink" version="1.1"><rect x="0" y="0" width="1524" height="600" fill="#02203d"></rect><path d="M0 296L23.2 281.5C46.3 267 92.7 238 138.8 252.7C185 267.3 231 325.7 277.2 350.5C323.3 375.3 369.7 366.7 415.8 351C462 335.3 508 312.7 554.2 293.2C600.3 273.7 646.7 257.3 692.8 265.8C739 274.3 785 307.7 831.2 305.3C877.3 303 923.7 265 969.8 284.5C1016 304 1062 381 1108.2 418.2C1154.3 455.3 1200.7 452.7 1246.8 412C1293 371.3 1339 292.7 1385.2 273.7C1431.3 254.7 1477.7 295.3 1500.8 315.7L1524 336L1524 601L1500.8 601C1477.7 601 1431.3 601 1385.2 601C1339 601 1293 601 1246.8 601C1200.7 601 1154.3 601 1108.2 601C1062 601 1016 601 969.8 601C923.7 601 877.3 601 831.2 601C785 601 739 601 692.8 601C646.7 601 600.3 601 554.2 601C508 601 462 601 415.8 601C369.7 601 323.3 601 277.2 601C231 601 185 601 138.8 601C92.7 601 46.3 601 23.2 601L0 601Z" fill="#0066FF" stroke-linecap="round" stroke-linejoin="miter"></path></svg>